<svg xmlns="http://www.w3.org/2000/svg" width="1000" height="1000" viewBox="0 0 1000 1000">
  <g id="グループ_7" data-name="グループ 7" transform="translate(-5170 -2011)">
    <path id="パス_3" data-name="パス 3" d="M0,0H1000V1000H0Z" transform="translate(5170 2011)" fill="#03210e"/>
    <path id="パス_4" data-name="パス 4" d="M190.233,162.343q1.945-.243,3.769,4.924a32.092,32.092,0,0,1,1.824,10.76,63.682,63.682,0,0,1-9.058,33.435q-9.058,15.076-20,15.076-12.523,0-12.523-15.319,0-9.483,11.793-15.927,17.386-9.6,21.52-26.87Q189.018,162.464,190.233,162.343ZM235.1,115.534q0-27.721-5.958-41.946-2.188-5.106-2.188-7.052,0-4.255,4.742-4.255a42.561,42.561,0,0,1,19.392,5.046q9.909,5.046,9.909,9.787a24.353,24.353,0,0,1-1.824,7.295q-4.134,11.064-4.134,28.329,10.091-1.216,15.2-1.7,26.748-3.161,32.949-3.161,15.563,0,15.563,17.143,0,5.714-7.781,5.714-1.459,0-7.538-.486-4.742-.365-12.523-.365-11.429,0-35.867,1.216v50.7l.122,22.857-.122,12.28q0,23.344-15.076,23.344-2.918,0-6.444-4.255a116.069,116.069,0,0,0-23.222-21.277q-7.173-4.742-7.052-5.958.243-1.581,4.742-1.581a66.244,66.244,0,0,1,8.511.973,34.434,34.434,0,0,0,4.863.365q8.632,0,10.76-3.951t2.128-19.757l.365-20.061.486-30.76q-14.468,2.067-41.824,10.213a33.336,33.336,0,0,1-9.362,1.7q-6.322,0-13.313-6.687T163.607,126.6q0-5.471,3.283-4.985l18.845,2.432,21.4-4.134Q216.617,119.06,235.1,115.534Zm59.21,44.256a53.819,53.819,0,0,1,25.775,15.259q11.064,11.49,11.064,23.161,0,18.724-11.55,18.724-7.538,0-15.076-17.873-7.781-18.724-14.711-25.167l-8.875-8.146q-3.283-2.918-2.8-3.647Q280.083,159.06,294.308,159.79Zm231.371-37.2q-6.322-.486-40.3,6.018t-42.979,9.909q-5.714,2.188-8.875,2.188-4.5,0-10.274-6.93T417.227,121q-.122-3.647,3.526-3.647.608,0,10.456.851.365,0,7.538-.365l10.456-.608q1.459,0,22.371-3.647l27.478-4.863q21.885-3.769,33.313-10.091,4.985-2.675,7.295-2.675,4.012,0,13.435,8.024t9.3,11.307q-.122,2.432-3.04,5.836a62.564,62.564,0,0,0-11.064,19.332L542.7,156.142Q532.244,185.079,509.325,210T459.9,246.113q-13.374,5.714-19.939,5.714a8.335,8.335,0,0,1-1.581-.122l-.729-.243,2.8-3.161,3.647-2.432,7.538-5.228q44.013-30.4,64.925-70.882Q530.3,143.133,530.3,127.449,530.3,122.95,525.678,122.585ZM437.045,61.794a55.506,55.506,0,0,1,8.024.486,99,99,0,0,0,11.793.729,98.88,98.88,0,0,0,14.468-1.459l25.411-4.012q15.441-2.432,20.791-4.5,9.24-3.283,13.252-3.526,4.985-.243,9.787,5.654t4.8,12.219q0,6.079-16.292,6.079-8.146,0-28.207,2.918L473.52,80.518A154.581,154.581,0,0,0,456.133,83.8a37.97,37.97,0,0,1-9.483,1.824q-4.985,0-9.544-6.261a22.226,22.226,0,0,1-4.559-13.313Q432.546,62.038,437.045,61.794Zm207.592,39.429c-1.743,1.743-1.992,2.241-1.992,5.727,0,5.976,4.233,16.434,9.462,22.908q6.35,8.217,11.952,8.217a19.852,19.852,0,0,0,3.735-.747c3.984-2.241,6.225-2.49,17.928-3.237,8.715-.5,65.736-1.992,88.893-2.241,47.061-.5,53.037-.747,59.76-2.988,3.486-1,5.727-3.735,5.727-6.723,0-2.241-1-3.735-3.486-4.98-4.482-1.743-9.96-2.241-32.37-2.241-8.217,0-87.4,1.245-97.11,1.494-27.888.747-27.888.747-30.627.747-13.2,0-17.928-1.245-24.153-5.976C648.87,108.693,647.625,106.95,644.637,101.223ZM150.719,565.37l28.207-3.161q-1.459-11.793-3.769-23.708-3.891-19.21-4.255-21.277-1.459-9-4.377-12.766a3.555,3.555,0,0,1-.851-1.459q0-1.824,3.04-1.824a41.612,41.612,0,0,1,9.24,1.581,24.47,24.47,0,0,0,6.565.729,54.4,54.4,0,0,0,8.024-.486l12.4-2.067q.608-.122,3.4-.365l.122-10.334.243-12.766q0-31.49-8.875-40.122-1.824-1.824-1.824-2.553,0-2.188,4.5-2.188a36.933,36.933,0,0,1,16.6,4.012q8.085,4.012,8.085,8.146a12.39,12.39,0,0,1-.608,3.283q-4.012,14.468-5.35,40.487l-.486,9.848q14.347-2.31,19.21-5.35l6.079-3.647a9.037,9.037,0,0,1,4.134-1.459q4.377,0,13.07,5.41t8.693,8.085q0,.973-1.581,2.553l-5.228,4.863q-3.161,2.918-8.024,19.332L252,544.7l-2.553,8.389q20.426-2.918,29.058-4.62a39.456,39.456,0,0,1,7.417-.973,15.247,15.247,0,0,1,9.3,3.222q4.316,3.222,4.316,6.991,0,4.62-6.2,4.62-3.526,0-10.456-.608-7.052-.608-16.049-.608-16.535,0-51.429,3.161,18.967,28.572,33.678,41.946t37.569,22.614l17.994,7.417q4.377,1.7,4.377,3.161,0,2.553-5.471,2.553L286.4,641.48l-21.034-.486q-10.213,0-22.371-16.292t-30.4-54.469q-6.322,29.788-26.079,50.7t-41.642,20.912q-3.647,0-3.647-1.337,0-.486,2.553-1.337,46.444-15.076,59.21-72.828-9.119,1.581-11.793,2.067l-23.952,4.985a25.714,25.714,0,0,1-5.471.608q-5.471,0-10.942-5.593l-.243,2.553q-2.067,33.557-4.255,44.438t-6.565,10.882q-1.824,0-4.5-10.456-2.8-10.7-7.538-10.7-2.31,0-11.307.973a66.627,66.627,0,0,1-8.024.486q-.122,2.188-.243,3.283-.608,12.523-4.377,12.523-1.824,0-4.438-5.775a24.706,24.706,0,0,1-2.614-9.787q0-.973.243-3.4,1.581-13.86,1.581-62.736,0-41.581-7.538-53.982a4.432,4.432,0,0,1-.851-2.188q0-2.31,3.283-2.31a99.045,99.045,0,0,1,12.888,1.581,25.5,25.5,0,0,0,4.377.486q9.483,0,26.5-6.2a15.892,15.892,0,0,1,4.742-1.216q3.647,0,10.334,4.195t6.687,6.5a4.738,4.738,0,0,1-1.581,2.8q-6.809,6.93-6.809,40l.122,16.049V565.37Zm-42.311-23.708a51.991,51.991,0,0,0,5.836-.608q15.2-2.553,15.441-2.553,5.228,0,5.228,3.647,0,7.173-18.845,7.173a51.169,51.169,0,0,1-6.809-.729l-1.094,52.645q4.985-.729,7.538-1.094,9.6-1.094,10.821-1.337a29.392,29.392,0,0,1,4.012-.486,37.136,37.136,0,0,1,6.444.973q1.581-15.927,1.581-54.833V506.4q0-13.374-.486-15.38t-3.526-2.006a38.562,38.562,0,0,0-5.471.486l-20.669,2.918Zm75.138-30.882,3.283,50.457,18.237-2.188a341.439,341.439,0,0,0,3.769-49.362v-3.04ZM215.766,557.1l23.222-2.675q1.7-8.511,2.067-10.821l2.918-18.48,2.31-13.982a30.392,30.392,0,0,0,.243-3.769q0-5.35-3.891-5.35-1.216,0-7.417.973l-15.441,2.553L219.9,512Q219.9,538.744,215.766,557.1ZM376.74,608.532l133.375-12.888q4.62-25.167,4.62-37.69a45.241,45.241,0,0,0-3.4-16.9,12.477,12.477,0,0,1-.973-4.255q0-3.526,3.769-3.526,4.863,0,13.617,7.295t8.754,11.307a9.241,9.241,0,0,1-.851,2.918,38.776,38.776,0,0,0-2.553,6.444l-3.04,11.793-3.161,12.037q-.608,2.188-3.647,20.547-4.134,24.681-10.334,24.681-6.079,0-6.079-7.417A116.023,116.023,0,0,1,508.9,604.4l-97.874,11.915q-29.18,3.526-38.542,10.091-3.891,2.553-5.593,2.553-2.553,0-6.2-4.863t-3.647-8.268a4.93,4.93,0,0,1,1.216-2.918l2.432-3.526q4.742-6.565,4.742-16.535,0-21.885-11.55-33.435l-4.134-4.377a5.89,5.89,0,0,1-2.067-4.377q0-3.283,4.985-3.283,14.347,0,19.514,9.483t5.167,35.867Q377.348,597.711,376.74,608.532Zm33.921-31.976q-1.094,7.66-4.742,7.66t-4.863-8.754q-7.417-55.563-17.629-69.667-1.945-2.8-1.945-4.255,0-4.134,5.106-4.134a17.6,17.6,0,0,1,4.62.851q2.8.729,12.645.729a22.44,22.44,0,0,0,3.891-.365l58.967-9.362a101.475,101.475,0,0,0,14.711-3.4,23.224,23.224,0,0,1,6.687-1.459q3.891,0,12.4,5.9t8.511,8.572q0,1.7-2.918,4.863-5.228,5.836-8.389,17.629L494.067,535.1q-12.037,44.985-18.724,44.985-3.04,0-4.985-5.106-1.581-4.5-5.471-4.5a44.11,44.11,0,0,0-5.106.365l-13.009,1.337q-4.985.486-19.575,2.31Zm-9.97-68.694q6.687,21.034,9.6,61.4l27.234-3.891V538.987l-7.9.243q-18.724,0-18.724-3.4,0-2.553,10.578-4.134,1.824-.365,7.052-1.459,2.8-.486,8.268-1.581A71.889,71.889,0,0,0,432.06,503ZM438.5,501.9q3.4,2.553,5.228,3.647,5.471,3.161,5.471,6.2a33.863,33.863,0,0,1-1.094,5.714,38.671,38.671,0,0,0-.729,5.471q-.122,1.337-.365,4.134a117.973,117.973,0,0,1,15.927-1.581q5.958,0,5.958,3.769,0,5.958-22.371,9V564.4l4.985-.608a125.905,125.905,0,0,1,13.5-1.459,8.315,8.315,0,0,1,3.526.729,6.772,6.772,0,0,0,1.459.486q3.283-.122,5.714-16.535.365-2.432,4.377-19.21,3.647-15.562,3.647-26.383,0-4.863-3.4-4.863a78.309,78.309,0,0,0-10.7.851Zm46.688-56.779q8.875.608,8.875,7.173,0,5.228-25.167,11.55t-46.2,6.322q-31.854,0-31-7.173.365-3.161,12.888-3.161,3.526,0,18.6-2.675l24.924-4.62q9.727-1.824,21.034-4.863Q480.207,444.761,485.191,445.125ZM581.971,623v-6.2h1.459q12.888,0,17.751-6.14t4.863-22.432V491.935q0-16.292-4.863-22.432t-17.751-6.14h-1.459v-6.2h55.441q50.213,0,70.882,12.28,34.651,20.547,34.651,67.964,0,40.852-25.593,63.223T645.072,623ZM624.4,469.928v139.7a91.566,91.566,0,0,0,26.748,3.769q31.247,0,51.064-20.73t19.818-53.435q0-33.557-19.332-53.192T650.421,466.4A89.007,89.007,0,0,0,624.4,469.928ZM850.181,536.92q44.256,8.754,44.256,41.095,0,20.912-15.38,32.949T836.807,623h-71v-6.2h1.459q12.888,0,17.751-6.14t4.863-22.432V491.935q0-16.292-4.863-22.432t-17.751-6.14H765.8v-6.2h57.751q62.372,0,62.372,44.256Q885.926,530.841,850.181,536.92Zm-41.946-68.694V528.9q0,2.553,3.161,2.675l14.833.729a39.093,39.093,0,0,0,28.207-9.6q12.4-10.456,12.4-24.438,0-33.313-44.134-33.313h-3.161l-7.417.365Q808.235,465.308,808.235,468.226Zm0,76.6V609.5q0,4.742,18.845,4.742,21.277,0,33.861-10.031t12.584-26.809q0-16.778-12.705-26.626t-34.225-9.848q-2.188,0-4.377.122-7.538.486-8.875.486Q808.235,541.54,808.235,544.823Z" transform="translate(5178 2171)" fill="#fff"/>
  </g>
</svg>
